<svg width="226" height="56" viewBox="0 0 226 56" fill="none" xmlns="http://www.w3.org/2000/svg">
<path d="M21.976 0.167999C22.296 0.167999 22.536 0.263999 22.696 0.455998C22.888 0.615998 22.984 0.807999 22.984 1.032C23.016 1.256 22.952 1.48 22.792 1.704C22.664 1.896 22.44 2.008 22.12 2.04C20.968 2.168 19.688 2.552 18.28 3.192C16.872 3.832 15.512 4.616 14.2 5.544C12.888 6.472 11.704 7.48 10.648 8.568C9.592 9.656 8.824 10.68 8.344 11.64C8.12 12.12 8.008 12.68 8.008 13.32C8.008 13.704 8.04 14.072 8.104 14.424C8.168 14.744 8.248 15.064 8.344 15.384C8.536 15.96 8.84 16.536 9.256 17.112C9.704 17.688 10.152 18.248 10.6 18.792L10.936 19.272C11.8 20.232 12.728 21.112 13.72 21.912L15.112 23.112C15.24 23.208 15.352 23.336 15.448 23.496C15.576 23.624 15.704 23.752 15.832 23.88C16.344 24.36 16.92 24.904 17.56 25.512C18.2 26.12 18.824 26.792 19.432 27.528C20.072 28.232 20.648 28.984 21.16 29.784C21.704 30.552 22.136 31.336 22.456 32.136L22.504 32.28C22.728 32.856 22.84 33.496 22.84 34.2C22.84 35.192 22.6 36.168 22.12 37.128C21.608 38.152 20.872 39.176 19.912 40.2C18.984 41.224 17.912 42.152 16.696 42.984C15.48 43.816 14.184 44.488 12.808 45C11.432 45.544 10.056 45.816 8.68 45.816C7.432 45.816 6.232 45.56 5.08 45.048C3.928 44.568 2.84 43.736 1.816 42.552V42.6C1.464 42.184 1.192 41.736 1 41.256C0.84 40.776 0.76 40.296 0.76 39.816C0.76 39.144 0.904 38.488 1.192 37.848C1.48 37.208 1.864 36.616 2.344 36.072C2.824 35.528 3.352 35.048 3.928 34.632C4.536 34.184 5.16 33.832 5.8 33.576C7.88 32.84 9.864 32.296 11.752 31.944C13.64 31.56 15.688 31.368 17.896 31.368C18.376 31.368 18.728 31.368 18.952 31.368C19.208 31.368 19.592 31.384 20.104 31.416C19.784 30.872 19.432 30.36 19.048 29.88C18.696 29.368 18.328 28.888 17.944 28.44C17.656 28.088 17.176 27.624 16.504 27.048C15.864 26.472 15.176 25.864 14.44 25.224C13.512 24.424 12.552 23.576 11.56 22.68C10.6 21.752 9.704 20.808 8.872 19.848C8.072 18.856 7.4 17.832 6.856 16.776C6.344 15.688 6.088 14.568 6.088 13.416C6.088 13.032 6.12 12.632 6.184 12.216C6.28 11.8 6.424 11.368 6.616 10.92C6.936 10.12 7.416 9.352 8.056 8.616C8.696 7.848 9.4 7.144 10.168 6.504C10.936 5.832 11.72 5.208 12.52 4.632C13.352 4.056 14.12 3.528 14.824 3.048C15.944 2.344 17.064 1.736 18.184 1.224C19.336 0.679998 20.584 0.327999 21.928 0.167999H21.976ZM20.44 36.36C20.6 36.008 20.712 35.672 20.776 35.352C20.84 35 20.872 34.648 20.872 34.296C20.872 34.136 20.856 33.976 20.824 33.816C20.824 33.624 20.808 33.432 20.776 33.24C20.392 33.208 19.96 33.192 19.48 33.192C19 33.192 18.568 33.192 18.184 33.192C16.2 33.192 14.184 33.368 12.136 33.72C10.12 34.072 8.232 34.6 6.472 35.304C6.024 35.496 5.592 35.736 5.176 36.024C4.76 36.28 4.376 36.6 4.024 36.984C3.672 37.336 3.368 37.736 3.112 38.184C2.888 38.6 2.76 39.064 2.728 39.576C2.696 40.248 2.856 40.84 3.208 41.352C3.56 41.864 4.008 42.296 4.552 42.648C5.128 43 5.736 43.272 6.376 43.464C7.048 43.688 7.672 43.816 8.248 43.848H8.2C9.416 43.912 10.632 43.752 11.848 43.368C13.096 43.016 14.264 42.504 15.352 41.832C16.44 41.16 17.416 40.344 18.28 39.384C19.176 38.456 19.896 37.448 20.44 36.36ZM27.5575 25.176C27.6215 24.92 27.7495 24.728 27.9415 24.6C28.1335 24.44 28.3255 24.36 28.5175 24.36C28.7415 24.36 28.9335 24.44 29.0935 24.6C29.2535 24.76 29.3655 24.984 29.4295 25.272L29.2855 27.144C29.1895 28.04 29.0935 29.064 28.9975 30.216C28.9015 31.368 28.8535 32.472 28.8535 33.528C28.8535 34.36 28.8695 35.08 28.9015 35.688C28.9655 36.264 29.1095 36.712 29.3335 37.032C29.8775 36.808 30.3735 36.36 30.8215 35.688C31.2695 35.016 31.6695 34.232 32.0215 33.336C32.4055 32.44 32.7415 31.496 33.0295 30.504C33.3175 29.48 33.5735 28.536 33.7975 27.672L34.4695 25.272C34.7575 24.92 35.1095 24.76 35.5255 24.792C35.9415 24.792 36.1975 25.048 36.2935 25.56C36.2935 25.912 36.2775 26.264 36.2455 26.616C36.2135 26.968 36.1655 27.384 36.1015 27.864C36.0375 28.536 35.9575 29.288 35.8615 30.12C35.7975 30.952 35.7655 31.736 35.7655 32.472C35.7655 33.08 35.7975 33.672 35.8615 34.248C35.9255 34.792 36.0375 35.256 36.1975 35.64C36.3575 36.024 36.5655 36.312 36.8215 36.504C37.1095 36.664 37.4775 36.664 37.9255 36.504C38.2135 36.408 38.4695 36.408 38.6935 36.504C38.9495 36.6 39.1255 36.744 39.2215 36.936C39.3175 37.128 39.3335 37.336 39.2695 37.56C39.2055 37.784 39.0455 37.976 38.7895 38.136C37.8615 38.424 37.0935 38.504 36.4855 38.376C35.8775 38.248 35.3975 37.96 35.0455 37.512C34.6935 37.032 34.4375 36.44 34.2775 35.736C34.1175 35.032 34.0215 34.264 33.9895 33.432C33.4775 34.744 32.8535 35.928 32.1175 36.984C31.3815 38.008 30.4695 38.68 29.3815 39C29.2215 39 29.0775 39 28.9495 39C28.8215 38.968 28.6615 38.904 28.4695 38.808C27.8295 38.232 27.4135 37.464 27.2215 36.504C27.0295 35.512 26.9335 34.456 26.9335 33.336C26.9335 32.344 26.9815 31.368 27.0775 30.408C27.1415 29.416 27.2215 28.488 27.3175 27.624C27.3495 27.24 27.3815 26.856 27.4135 26.472C27.4775 26.056 27.5255 25.64 27.5575 25.224V25.176ZM42.2155 25.128C42.2155 24.808 42.2955 24.568 42.4555 24.408C42.6475 24.216 42.8395 24.12 43.0315 24.12C43.2555 24.088 43.4635 24.152 43.6555 24.312C43.8475 24.44 43.9755 24.664 44.0395 24.984V31.128C44.0395 31.544 44.0235 31.8 43.9915 31.896C43.9915 31.992 43.9915 32.056 43.9915 32.088C43.9915 32.12 43.9915 32.184 43.9915 32.28C43.9915 32.376 44.0075 32.632 44.0395 33.048C44.4235 31.96 44.8715 30.888 45.3835 29.832C45.8955 28.776 46.4875 27.784 47.1595 26.856C47.4155 26.568 47.7035 26.424 48.0235 26.424C48.0875 26.424 48.1515 26.44 48.2155 26.472C48.3115 26.472 48.3915 26.472 48.4555 26.472L48.9835 26.52C49.0475 26.584 49.1275 26.68 49.2235 26.808C49.3515 26.936 49.4315 27 49.4635 27C49.7835 27.704 50.0075 28.392 50.1355 29.064C50.2955 29.704 50.4395 30.36 50.5675 31.032C50.7275 32.024 50.9355 32.984 51.1915 33.912C51.4475 34.84 51.9275 35.608 52.6315 36.216C52.8235 36.44 52.9035 36.664 52.8715 36.888C52.8395 37.112 52.7435 37.304 52.5835 37.464C52.4555 37.592 52.2635 37.688 52.0075 37.752C51.7835 37.784 51.5595 37.72 51.3355 37.56C50.9195 37.208 50.5675 36.808 50.2795 36.36C50.0235 35.88 49.7995 35.384 49.6075 34.872C49.4475 34.328 49.3035 33.784 49.1755 33.24C49.0795 32.696 48.9835 32.184 48.8875 31.704C48.7915 31.16 48.6795 30.632 48.5515 30.12C48.4555 29.576 48.3275 29.064 48.1675 28.584C47.4635 29.672 46.9035 30.776 46.4875 31.896C46.0715 33.016 45.6875 34.184 45.3355 35.4L44.4235 38.232C44.1675 38.776 43.7035 38.84 43.0315 38.424C42.8395 38.264 42.6795 37.96 42.5515 37.512C42.4235 37.032 42.3275 36.472 42.2635 35.832C42.1995 35.192 42.1515 34.488 42.1195 33.72C42.0875 32.952 42.0715 32.168 42.0715 31.368C42.0715 30.504 42.0715 29.656 42.0715 28.824C42.1035 27.992 42.1355 27.256 42.1675 26.616C42.1675 26.392 42.1675 26.12 42.1675 25.8C42.1995 25.448 42.2155 25.224 42.2155 25.128ZM49.4635 26.952V27V26.952ZM57.9629 23.304C58.4429 22.568 58.9229 22.008 59.4029 21.624C59.9149 21.24 60.4109 21.016 60.8909 20.952C61.4029 20.856 61.8989 20.888 62.3789 21.048C62.8909 21.208 63.3869 21.448 63.8669 21.768C63.7069 19.784 63.5949 17.8 63.5309 15.816C63.4989 13.832 63.5629 11.928 63.7229 10.104C63.7229 9.752 63.7549 9.096 63.8189 8.136C63.9149 7.176 64.0749 6.168 64.2989 5.112C64.5549 4.056 64.9229 3.096 65.4029 2.232C65.8829 1.336 66.5389 0.759998 67.3709 0.503998C67.9469 0.343998 68.4429 0.455998 68.8589 0.839999C69.2749 1.224 69.6109 1.768 69.8669 2.472C70.1549 3.176 70.3789 3.976 70.5389 4.872C70.6989 5.736 70.8109 6.584 70.8749 7.416C70.9709 8.216 71.0189 8.936 71.0189 9.576C71.0509 10.216 71.0669 10.632 71.0669 10.824C71.0669 14.216 70.6349 17.512 69.7709 20.712C68.9069 23.912 67.7389 27.096 66.2669 30.264C66.4269 31.224 66.5709 32.184 66.6989 33.144C66.8269 34.072 66.9709 34.952 67.1309 35.784C67.4189 37.416 67.7229 39.016 68.0429 40.584C68.3949 42.184 68.7949 43.752 69.2429 45.288C69.7229 46.824 70.2829 48.344 70.9229 49.848C71.5949 51.352 72.3949 52.84 73.3229 54.312C73.3869 54.696 73.2589 54.968 72.9389 55.128C72.6189 55.288 72.2829 55.208 71.9309 54.888C70.8429 53.192 69.8989 51.464 69.0989 49.704C68.3309 47.976 67.6749 46.216 67.1309 44.424C66.5869 42.632 66.1229 40.824 65.7389 39C65.3869 37.144 65.0989 35.272 64.8749 33.384C64.7469 33.544 64.6669 33.624 64.6349 33.624C64.6029 33.592 64.5549 33.656 64.4909 33.816C64.3629 34.072 64.1389 34.472 63.8189 35.016C63.5309 35.528 63.1629 36.072 62.7149 36.648C62.2989 37.192 61.8189 37.704 61.2749 38.184C60.7629 38.664 60.2029 38.984 59.5949 39.144C58.7629 39.336 58.0749 39.288 57.5309 39C56.9869 38.712 56.5389 38.328 56.1869 37.848C55.8669 37.336 55.6269 36.776 55.4669 36.168C55.3389 35.56 55.2749 35.032 55.2749 34.584C55.3389 32.696 55.5309 30.776 55.8509 28.824C56.1709 26.872 56.8749 25.032 57.9629 23.304ZM63.8669 23.784C61.6589 21.544 59.8669 22.376 58.4909 26.28C58.1709 27.112 57.8669 28.008 57.5789 28.968C57.3229 29.928 57.1469 30.904 57.0509 31.896C56.9549 32.856 56.9869 33.816 57.1469 34.776C57.3069 35.704 57.6749 36.568 58.2509 37.368C58.9549 37.432 59.5469 37.336 60.0269 37.08C60.5069 36.824 60.9069 36.488 61.2269 36.072C61.5789 35.624 61.8829 35.144 62.1389 34.632C62.4269 34.12 62.7149 33.624 63.0029 33.144C63.2589 32.664 63.5149 32.2 63.7709 31.752C64.0269 31.304 64.2829 30.824 64.5389 30.312L63.8669 23.784ZM65.5469 23.16C65.8029 23.448 66.0429 23.736 66.2669 24.024C66.4909 24.28 66.6829 24.568 66.8429 24.888C67.6109 22.68 68.2189 20.44 68.6669 18.168C69.1469 15.864 69.3869 13.576 69.3869 11.304C69.3869 10.92 69.3549 10.328 69.2909 9.528C69.2589 8.696 69.1789 7.848 69.0509 6.984C68.9229 6.088 68.7789 5.256 68.6189 4.488C68.4589 3.688 68.2509 3.128 67.9949 2.808C67.7389 2.456 67.4509 2.44 67.1309 2.76C66.8429 3.048 66.5069 3.816 66.1229 5.064C65.8669 5.992 65.6749 6.92 65.5469 7.848C65.4509 8.744 65.3709 9.656 65.3069 10.584C65.2429 11.832 65.2109 13.096 65.2109 14.376C65.2109 15.624 65.2269 16.872 65.2589 18.12C65.2909 19.656 65.3869 21.336 65.5469 23.16ZM81.5316 34.488C81.7876 34.744 81.8996 35.016 81.8676 35.304C81.7396 35.688 81.5956 35.912 81.4356 35.976C80.6036 36.904 79.7396 37.736 78.8436 38.472C77.9796 39.176 77.2276 39.496 76.5876 39.432C75.6596 39.336 74.8916 39.032 74.2836 38.52C73.6756 37.976 73.1796 37.288 72.7956 36.456L72.4116 35.448C72.0276 34.296 71.8356 32.936 71.8356 31.368C71.8356 30.248 71.9476 29.144 72.1716 28.056C72.3956 26.968 72.6996 25.976 73.0836 25.08C73.4996 24.184 73.9956 23.448 74.5716 22.872C75.1476 22.264 75.8036 21.896 76.5396 21.768C77.0516 21.704 77.4676 21.784 77.7876 22.008C78.1396 22.232 78.4116 22.536 78.6036 22.92C78.7956 23.272 78.9236 23.688 78.9876 24.168C79.0516 24.648 79.0836 25.128 79.0836 25.608C79.0836 26.088 79.0356 26.552 78.9396 27C78.8756 27.448 78.8116 27.752 78.7476 27.912V27.864C78.1716 29.496 77.5476 30.936 76.8756 32.184C76.2036 33.432 75.3716 34.584 74.3796 35.64C74.6036 36.184 74.8756 36.664 75.1956 37.08C75.5156 37.496 75.9476 37.656 76.4916 37.56C77.2916 37.432 77.9796 37.08 78.5556 36.504C79.1636 35.896 79.6916 35.32 80.1396 34.776C80.4596 34.232 80.8756 34.104 81.3876 34.392L81.5316 34.488ZM73.8036 31.128C73.8036 31.512 73.8036 31.896 73.8036 32.28C73.8036 32.664 73.8356 33.032 73.8996 33.384C74.6356 32.392 75.2596 31.368 75.7716 30.312C76.3156 29.256 76.7316 28.264 77.0196 27.336C77.1156 26.984 77.1956 26.664 77.2596 26.376C77.3236 26.088 77.3556 25.8 77.3556 25.512C77.3556 25.16 77.2916 24.84 77.1636 24.552C77.0356 24.232 76.8436 23.96 76.5876 23.736C76.0436 23.992 75.5956 24.392 75.2436 24.936C74.8916 25.48 74.6036 26.088 74.3796 26.76C74.1556 27.432 73.9956 28.152 73.8996 28.92C73.8356 29.688 73.8036 30.424 73.8036 31.128ZM92.0466 34.488C92.3026 34.744 92.4146 35.016 92.3826 35.304C92.2546 35.688 92.1106 35.912 91.9506 35.976C91.1186 36.904 90.2546 37.736 89.3586 38.472C88.4946 39.176 87.7426 39.496 87.1026 39.432C86.1746 39.336 85.4066 39.032 84.7986 38.52C84.1906 37.976 83.6946 37.288 83.3106 36.456L82.9266 35.448C82.5426 34.296 82.3506 32.936 82.3506 31.368C82.3506 30.248 82.4626 29.144 82.6866 28.056C82.9106 26.968 83.2146 25.976 83.5986 25.08C84.0146 24.184 84.5106 23.448 85.0866 22.872C85.6626 22.264 86.3186 21.896 87.0546 21.768C87.5666 21.704 87.9826 21.784 88.3026 22.008C88.6546 22.232 88.9266 22.536 89.1186 22.92C89.3106 23.272 89.4386 23.688 89.5026 24.168C89.5666 24.648 89.5986 25.128 89.5986 25.608C89.5986 26.088 89.5506 26.552 89.4546 27C89.3906 27.448 89.3266 27.752 89.2626 27.912V27.864C88.6866 29.496 88.0626 30.936 87.3906 32.184C86.7186 33.432 85.8866 34.584 84.8946 35.64C85.1186 36.184 85.3906 36.664 85.7106 37.08C86.0306 37.496 86.4626 37.656 87.0066 37.56C87.8066 37.432 88.4946 37.08 89.0706 36.504C89.6786 35.896 90.2066 35.32 90.6546 34.776C90.9746 34.232 91.3906 34.104 91.9026 34.392L92.0466 34.488ZM84.3186 31.128C84.3186 31.512 84.3186 31.896 84.3186 32.28C84.3186 32.664 84.3506 33.032 84.4146 33.384C85.1506 32.392 85.7746 31.368 86.2866 30.312C86.8306 29.256 87.2466 28.264 87.5346 27.336C87.6306 26.984 87.7106 26.664 87.7746 26.376C87.8386 26.088 87.8706 25.8 87.8706 25.512C87.8706 25.16 87.8066 24.84 87.6786 24.552C87.5506 24.232 87.3586 23.96 87.1026 23.736C86.5586 23.992 86.1106 24.392 85.7586 24.936C85.4066 25.48 85.1186 26.088 84.8946 26.76C84.6706 27.432 84.5106 28.152 84.4146 28.92C84.3506 29.688 84.3186 30.424 84.3186 31.128ZM95.32 25.416C95.384 25.128 95.512 24.92 95.704 24.792C95.896 24.632 96.088 24.568 96.28 24.6C96.472 24.6 96.648 24.68 96.808 24.84C97 24.968 97.112 25.16 97.144 25.416V28.824V31.416C97.24 31.032 97.4 30.424 97.624 29.592C97.88 28.76 98.2 27.912 98.584 27.048C99 26.184 99.48 25.416 100.024 24.744C100.568 24.072 101.192 23.72 101.896 23.688C102.504 23.688 103.016 23.768 103.432 23.928C103.848 24.056 104.168 24.232 104.392 24.456C104.648 24.648 104.84 24.856 104.968 25.08C105.128 25.304 105.256 25.512 105.352 25.704V25.656C105.672 26.264 105.832 27.112 105.832 28.2C105.832 28.936 105.752 29.736 105.592 30.6C105.432 31.432 105.224 32.248 104.968 33.048C104.744 33.848 104.488 34.584 104.2 35.256C103.912 35.896 103.64 36.408 103.384 36.792C103.256 36.984 102.984 37.24 102.568 37.56C102.152 37.848 101.64 37.992 101.032 37.992C100.488 37.992 99.96 37.8 99.448 37.416C99.16 37.224 98.968 37.016 98.872 36.792C98.808 36.536 98.808 36.312 98.872 36.12C98.936 35.928 99.08 35.784 99.304 35.688C99.528 35.56 99.784 35.544 100.072 35.64L101.32 36.264C101.64 36.136 101.96 35.8 102.28 35.256C102.6 34.712 102.872 34.072 103.096 33.336C103.352 32.568 103.544 31.752 103.672 30.888C103.832 30.024 103.912 29.208 103.912 28.44C103.912 27.768 103.848 27.176 103.72 26.664C103.624 26.12 103.432 25.72 103.144 25.464H102.856C102.76 25.464 102.664 25.464 102.568 25.464C102.504 25.432 102.488 25.4 102.52 25.368C101.912 25.656 101.4 26.056 100.984 26.568C100.6 27.08 100.264 27.656 99.976 28.296C99.72 28.904 99.512 29.528 99.352 30.168C99.192 30.808 99.048 31.4 98.92 31.944C98.408 34.28 98.104 36.632 98.008 39C97.912 41.336 97.832 43.688 97.768 46.056C97.736 46.952 97.72 47.832 97.72 48.696C97.72 49.592 97.688 50.488 97.624 51.384C97.624 51.48 97.608 51.576 97.576 51.672C97.576 51.8 97.576 51.912 97.576 52.008C97.576 52.04 97.576 52.088 97.576 52.152C97.576 52.216 97.56 52.28 97.528 52.344C97.528 52.376 97.512 52.392 97.48 52.392C97.48 52.392 97.48 52.408 97.48 52.44V52.536C97.256 52.76 97.064 52.872 96.904 52.872H96.856C96.792 52.872 96.728 52.872 96.664 52.872C96.632 52.904 96.584 52.92 96.52 52.92C96.104 52.824 95.848 52.536 95.752 52.056C95.784 51.768 95.8 51.464 95.8 51.144C95.832 50.856 95.832 50.568 95.8 50.28V49.944C95.8 49.784 95.8 49.624 95.8 49.464C95.832 49.304 95.848 49.144 95.848 48.984C95.848 48.824 95.848 48.632 95.848 48.408C95.848 48.216 95.864 48.04 95.896 47.88C95.896 47.176 95.88 46.408 95.848 45.576C95.816 44.744 95.784 43.912 95.752 43.08C95.72 42.248 95.688 41.416 95.656 40.584C95.624 39.784 95.592 39.032 95.56 38.328C95.496 36.696 95.432 35.096 95.368 33.528C95.304 31.928 95.272 30.312 95.272 28.68C95.272 28.136 95.272 27.608 95.272 27.096C95.272 26.584 95.288 26.056 95.32 25.512V25.416ZM128.753 45.144C128.817 45.4 128.801 45.624 128.705 45.816C128.641 46.04 128.529 46.2 128.369 46.296C128.209 46.392 128.001 46.424 127.745 46.392C127.521 46.36 127.297 46.232 127.073 46.008C126.273 44.536 125.569 43.08 124.961 41.64C124.385 40.232 123.873 38.808 123.425 37.368C123.009 35.896 122.657 34.392 122.369 32.856C122.081 31.32 121.857 29.688 121.697 27.96L121.313 23.16C121.217 22.136 121.137 21.368 121.073 20.856C121.041 20.312 121.025 19.72 121.025 19.08C121.025 18.728 121.041 18.344 121.073 17.928C121.073 17.48 121.089 16.936 121.121 16.296L121.265 12.312C121.329 11.256 121.457 10.168 121.649 9.048C121.873 7.896 122.161 6.808 122.513 5.784C123.249 3.704 124.193 2.232 125.345 1.368C126.497 0.503998 127.697 0.0719976 128.945 0.0719976C129.809 0.0719976 130.673 0.231997 131.537 0.551997C132.433 0.871999 133.297 1.32 134.129 1.896C134.993 2.44 135.809 3.064 136.577 3.768C137.377 4.472 138.097 5.208 138.737 5.976C141.393 9.112 143.409 12.328 144.785 15.624C146.161 18.92 146.849 22.376 146.849 25.992C146.849 29.736 146.033 33.72 144.401 37.944C144.241 38.328 143.985 38.904 143.633 39.672C143.313 40.44 142.913 41.288 142.433 42.216C141.953 43.144 141.425 44.088 140.849 45.048C140.273 46.04 139.665 46.92 139.025 47.688C138.417 48.488 137.793 49.144 137.153 49.656C136.513 50.168 135.889 50.424 135.281 50.424C135.025 50.424 134.801 50.344 134.609 50.184C134.449 50.056 134.289 49.944 134.129 49.848H134.081C133.857 49.624 133.729 49.384 133.697 49.128C133.665 48.904 133.697 48.696 133.793 48.504C133.889 48.344 134.033 48.216 134.225 48.12C134.417 48.056 134.657 48.056 134.945 48.12L135.425 48.456C136.193 48.168 136.945 47.544 137.681 46.584C138.449 45.624 139.153 44.568 139.793 43.416C140.433 42.264 140.993 41.128 141.473 40.008C141.985 38.888 142.369 37.992 142.625 37.32C143.393 35.336 143.969 33.4 144.353 31.512C144.769 29.624 144.977 27.752 144.977 25.896C144.977 22.6 144.321 19.384 143.009 16.248C141.697 13.112 139.793 10.088 137.297 7.176C136.945 6.792 136.449 6.296 135.809 5.688C135.169 5.08 134.481 4.488 133.745 3.912C133.041 3.336 132.337 2.856 131.633 2.472C130.929 2.056 130.353 1.88 129.905 1.944C128.433 2.136 127.249 2.584 126.353 3.288C125.457 3.992 124.753 5.016 124.241 6.36C123.761 7.896 123.393 9.656 123.137 11.64C122.881 13.592 122.753 15.656 122.753 17.832C122.753 19.88 122.849 21.992 123.041 24.168C123.265 26.312 123.553 28.408 123.905 30.456C124.257 32.504 124.657 34.456 125.105 36.312C125.585 38.136 126.097 39.768 126.641 41.208C126.801 41.56 126.993 41.96 127.217 42.408C127.473 42.888 127.729 43.336 127.985 43.752L128.705 45.048L128.753 45.144ZM157.726 28.776C157.694 29.224 157.662 29.656 157.63 30.072C157.63 30.488 157.63 30.92 157.63 31.368C157.63 32.584 157.71 33.72 157.87 34.776C158.062 35.8 158.382 36.584 158.83 37.128H158.782C158.846 37.192 158.958 37.224 159.118 37.224L159.694 37.464L159.646 37.416C160.158 37.704 160.334 38.072 160.174 38.52C160.014 38.936 159.662 39.144 159.118 39.144L158.542 38.904C158.382 38.84 158.206 38.776 158.014 38.712C157.854 38.648 157.71 38.568 157.582 38.472C157.134 38.12 156.782 37.544 156.526 36.744C156.27 35.944 156.078 35.048 155.95 34.056C155.694 34.568 155.422 35.048 155.134 35.496C154.878 35.912 154.574 36.264 154.222 36.552C153.902 36.84 153.55 37.048 153.166 37.176C152.782 37.304 152.382 37.304 151.966 37.176C151.39 37.016 150.974 36.616 150.718 35.976C150.494 35.336 150.382 34.616 150.382 33.816C150.382 32.984 150.478 32.136 150.67 31.272C150.862 30.376 151.038 29.704 151.198 29.256C151.39 28.744 151.662 28.2 152.014 27.624C152.366 27.016 152.766 26.488 153.214 26.04C153.662 25.56 154.142 25.224 154.654 25.032C155.166 24.808 155.694 24.808 156.238 25.032C156.43 23.112 156.942 22.264 157.774 22.488C157.966 22.552 158.11 22.616 158.206 22.68C158.334 22.744 158.414 22.856 158.446 23.016C158.478 23.144 158.478 23.336 158.446 23.592C158.414 23.848 158.366 24.2 158.302 24.648C158.238 25.064 158.158 25.608 158.062 26.28C157.966 26.92 157.854 27.752 157.726 28.776ZM155.518 26.52C154.942 26.616 154.446 26.904 154.03 27.384C153.646 27.832 153.326 28.392 153.07 29.064C152.814 29.704 152.622 30.392 152.494 31.128C152.366 31.864 152.302 32.552 152.302 33.192C152.302 33.832 152.334 34.392 152.398 34.872C152.494 35.32 152.622 35.544 152.782 35.544C152.942 35.544 153.166 35.352 153.454 34.968C153.742 34.552 154.094 33.832 154.51 32.808V32.856L154.702 32.376C154.798 32.056 154.878 31.752 154.942 31.464C155.038 31.176 155.134 30.872 155.23 30.552C155.358 30.104 155.518 29.544 155.71 28.872C155.902 28.168 156.03 27.592 156.094 27.144L155.518 26.52ZM160.943 28.344C160.943 28.024 161.023 27.784 161.183 27.624C161.375 27.432 161.567 27.336 161.759 27.336C161.983 27.304 162.191 27.368 162.383 27.528C162.575 27.656 162.703 27.88 162.767 28.2C162.831 28.584 162.927 29 163.055 29.448C163.215 29.896 163.375 30.312 163.535 30.696C163.983 31.784 164.351 32.328 164.639 32.328C164.831 32.328 165.023 31.96 165.215 31.224C165.439 30.488 165.663 29.688 165.887 28.824C166.111 27.896 166.319 27.064 166.511 26.328C166.735 25.56 167.007 25.096 167.327 24.936C167.711 24.808 167.967 24.76 168.095 24.792C168.255 24.824 168.415 24.92 168.575 25.08C169.407 25.848 170.095 26.84 170.639 28.056C171.215 29.24 171.727 30.488 172.175 31.8C172.879 31.32 173.599 30.92 174.335 30.6C175.071 30.248 175.999 29.912 177.119 29.592C177.567 29.592 177.871 29.704 178.031 29.928C178.191 30.152 178.239 30.408 178.175 30.696C178.175 30.76 178.191 30.856 178.223 30.984C178.255 31.08 178.271 31.144 178.271 31.176C177.951 31.304 177.759 31.368 177.695 31.368C177.535 31.464 177.327 31.576 177.071 31.704C176.847 31.832 176.607 31.944 176.351 32.04C176.095 32.04 175.903 32.008 175.775 31.944C175.231 32.168 174.719 32.408 174.239 32.664C173.791 32.888 173.327 33.176 172.847 33.528C172.943 33.784 173.023 34.04 173.087 34.296C173.183 34.552 173.263 34.808 173.327 35.064H173.279C173.727 36.28 174.111 37.512 174.431 38.76C174.751 40.008 174.943 41.24 175.007 42.456C175.071 43.832 174.927 45.032 174.575 46.056C174.255 47.112 173.743 48.248 173.039 49.464C172.719 49.944 172.303 50.376 171.791 50.76C171.311 51.144 170.847 51.464 170.399 51.72C169.183 52.424 167.999 52.776 166.847 52.776C165.951 52.776 165.135 52.552 164.399 52.104C163.663 51.688 162.975 50.984 162.335 49.992C161.983 49.416 161.807 48.696 161.807 47.832C161.807 46.936 161.951 46.008 162.239 45.048C162.527 44.12 162.799 43.368 163.055 42.792C163.279 42.28 163.583 41.672 163.967 40.968C164.383 40.296 164.815 39.624 165.263 38.952C165.711 38.28 166.175 37.64 166.655 37.032C167.167 36.424 167.631 35.912 168.047 35.496C168.527 35.048 168.959 34.616 169.343 34.2C169.759 33.784 170.175 33.4 170.591 33.048L170.159 31.8C169.903 31 169.615 30.2 169.295 29.4C168.975 28.6 168.591 27.88 168.143 27.24C168.143 27.304 168.127 27.4 168.095 27.528C168.063 27.624 168.047 27.704 168.047 27.768C167.887 28.472 167.695 29.272 167.471 30.168C167.279 31.064 167.007 31.88 166.655 32.616C166.335 33.32 165.951 33.848 165.503 34.2C165.055 34.52 164.511 34.456 163.871 34.008C163.327 33.656 162.895 33.256 162.575 32.808C162.287 32.36 162.015 31.864 161.759 31.32C161.567 30.776 161.391 30.28 161.231 29.832C161.103 29.384 161.007 28.904 160.943 28.392V28.344ZM173.183 42.552C173.119 41.112 172.895 39.784 172.511 38.568C172.127 37.352 171.711 36.104 171.263 34.824C170.975 35.08 170.655 35.384 170.303 35.736C169.983 36.056 169.663 36.408 169.343 36.792C168.511 37.656 167.663 38.712 166.799 39.96C165.967 41.208 165.279 42.392 164.735 43.512C164.511 43.96 164.303 44.472 164.111 45.048C163.919 45.624 163.791 46.184 163.727 46.728C163.567 48.264 163.727 49.352 164.207 49.992C164.719 50.664 165.391 51 166.223 51C166.799 51 167.407 50.872 168.047 50.616C168.719 50.392 169.343 50.072 169.919 49.656C170.527 49.272 171.071 48.824 171.551 48.312C172.031 47.8 172.383 47.256 172.607 46.68C172.863 46.04 173.023 45.368 173.087 44.664C173.183 43.96 173.215 43.272 173.183 42.6V42.552ZM186.631 28.776C186.599 29.224 186.567 29.656 186.535 30.072C186.535 30.488 186.535 30.92 186.535 31.368C186.535 32.584 186.615 33.72 186.775 34.776C186.967 35.8 187.287 36.584 187.735 37.128H187.687C187.751 37.192 187.863 37.224 188.023 37.224L188.599 37.464L188.551 37.416C189.063 37.704 189.239 38.072 189.079 38.52C188.919 38.936 188.567 39.144 188.023 39.144L187.447 38.904C187.287 38.84 187.111 38.776 186.919 38.712C186.759 38.648 186.615 38.568 186.487 38.472C186.039 38.12 185.687 37.544 185.431 36.744C185.175 35.944 184.983 35.048 184.855 34.056C184.599 34.568 184.327 35.048 184.039 35.496C183.783 35.912 183.479 36.264 183.127 36.552C182.807 36.84 182.455 37.048 182.071 37.176C181.687 37.304 181.287 37.304 180.871 37.176C180.295 37.016 179.879 36.616 179.623 35.976C179.399 35.336 179.287 34.616 179.287 33.816C179.287 32.984 179.383 32.136 179.575 31.272C179.767 30.376 179.943 29.704 180.103 29.256C180.295 28.744 180.567 28.2 180.919 27.624C181.271 27.016 181.671 26.488 182.119 26.04C182.567 25.56 183.047 25.224 183.559 25.032C184.071 24.808 184.599 24.808 185.143 25.032C185.335 23.112 185.847 22.264 186.679 22.488C186.871 22.552 187.015 22.616 187.111 22.68C187.239 22.744 187.319 22.856 187.351 23.016C187.383 23.144 187.383 23.336 187.351 23.592C187.319 23.848 187.271 24.2 187.207 24.648C187.143 25.064 187.063 25.608 186.967 26.28C186.871 26.92 186.759 27.752 186.631 28.776ZM184.423 26.52C183.847 26.616 183.351 26.904 182.935 27.384C182.551 27.832 182.231 28.392 181.975 29.064C181.719 29.704 181.527 30.392 181.399 31.128C181.271 31.864 181.207 32.552 181.207 33.192C181.207 33.832 181.239 34.392 181.303 34.872C181.399 35.32 181.527 35.544 181.687 35.544C181.847 35.544 182.071 35.352 182.359 34.968C182.647 34.552 182.999 33.832 183.415 32.808V32.856L183.607 32.376C183.703 32.056 183.783 31.752 183.847 31.464C183.943 31.176 184.039 30.872 184.135 30.552C184.263 30.104 184.423 29.544 184.615 28.872C184.807 28.168 184.935 27.592 184.999 27.144L184.423 26.52ZM188.58 40.92C188.388 40.472 188.436 40.12 188.724 39.864C188.98 39.608 189.284 39.528 189.636 39.624C190.18 39.4 190.724 38.92 191.268 38.184C191.812 37.448 192.292 36.792 192.708 36.216L193.092 35.736V35.784C193.06 35.848 193.06 35.848 193.092 35.784C193.156 35.72 193.22 35.64 193.284 35.544C193.348 35.416 193.412 35.288 193.476 35.16C193.572 35.032 193.652 34.936 193.716 34.872C193.556 34.136 193.412 33.416 193.284 32.712C193.188 31.976 193.092 31.288 192.996 30.648C192.9 29.976 192.82 29.384 192.756 28.872C192.724 28.328 192.692 27.896 192.66 27.576L192.516 26.136C192.388 24.76 192.276 23.464 192.18 22.248C192.116 21 192.052 19.656 191.988 18.216C191.924 17.224 191.86 16.184 191.796 15.096C191.764 14.008 191.748 12.968 191.748 11.976C191.748 10.984 191.764 9.992 191.796 9C191.86 8.008 191.956 7.016 192.084 6.024C192.148 5.192 192.324 4.6 192.612 4.248C192.932 3.896 193.3 3.72 193.716 3.72C194.036 3.72 194.372 3.832 194.724 4.056C195.108 4.28 195.46 4.568 195.78 4.92C196.132 5.24 196.436 5.592 196.692 5.976C196.98 6.328 197.188 6.648 197.316 6.936V6.888C197.54 7.304 197.748 7.72 197.94 8.136C198.132 8.552 198.356 9.048 198.612 9.624C198.836 10.168 199.012 10.648 199.14 11.064C199.3 11.448 199.412 11.816 199.476 12.168C199.572 12.52 199.652 12.888 199.716 13.272C199.78 13.624 199.86 14.024 199.956 14.472C199.988 14.632 200.02 14.792 200.052 14.952C200.084 15.112 200.116 15.288 200.148 15.48C200.276 16.12 200.356 16.776 200.388 17.448C200.452 18.12 200.484 18.776 200.484 19.416C200.484 22.168 200.036 24.888 199.14 27.576C198.244 30.264 197.076 32.776 195.636 35.112C195.732 35.528 195.844 36.008 195.972 36.552C196.132 37.096 196.292 37.64 196.452 38.184C196.612 38.728 196.788 39.24 196.98 39.72C197.172 40.232 197.364 40.664 197.556 41.016C197.812 40.952 198.084 41.016 198.372 41.208C198.66 41.4 198.772 41.688 198.708 42.072L198.612 42.6C198.356 43.304 197.924 43.608 197.316 43.512C196.58 43.16 195.956 42.392 195.444 41.208C194.964 40.056 194.548 38.76 194.196 37.32C193.652 38.088 193.012 38.904 192.276 39.768C191.54 40.632 190.724 41.208 189.828 41.496C189.348 41.592 188.948 41.432 188.628 41.016L188.532 40.776L188.58 40.92ZM194.484 27.336C194.516 27.88 194.548 28.344 194.58 28.728C194.612 29.112 194.644 29.496 194.676 29.88C194.708 30.264 194.756 30.664 194.82 31.08C194.884 31.464 194.964 31.912 195.06 32.424C196.18 30.312 197.028 28.168 197.604 25.992C198.212 23.816 198.516 21.544 198.516 19.176C198.516 18.632 198.484 18.088 198.42 17.544C198.388 16.968 198.34 16.408 198.276 15.864C198.116 14.392 197.796 12.952 197.316 11.544C196.868 10.136 196.276 8.776 195.54 7.464L195.348 7.128V7.176C195.188 6.92 194.996 6.632 194.772 6.312C194.548 5.992 194.356 5.768 194.196 5.64C193.908 6.376 193.716 7.144 193.62 7.944C193.524 8.744 193.476 9.56 193.476 10.392C193.476 10.68 193.476 10.984 193.476 11.304C193.508 11.592 193.524 11.88 193.524 12.168C193.524 12.36 193.524 12.552 193.524 12.744C193.556 12.936 193.572 13.112 193.572 13.272C193.636 15.672 193.748 18.04 193.908 20.376C194.1 22.68 194.292 25 194.484 27.336ZM209.583 28.776C209.551 29.224 209.519 29.656 209.487 30.072C209.487 30.488 209.487 30.92 209.487 31.368C209.487 32.584 209.567 33.72 209.727 34.776C209.919 35.8 210.239 36.584 210.687 37.128H210.639C210.703 37.192 210.815 37.224 210.975 37.224L211.551 37.464L211.503 37.416C212.015 37.704 212.191 38.072 212.031 38.52C211.871 38.936 211.519 39.144 210.975 39.144L210.399 38.904C210.239 38.84 210.063 38.776 209.871 38.712C209.711 38.648 209.567 38.568 209.439 38.472C208.991 38.12 208.639 37.544 208.383 36.744C208.127 35.944 207.935 35.048 207.807 34.056C207.551 34.568 207.279 35.048 206.991 35.496C206.735 35.912 206.431 36.264 206.079 36.552C205.759 36.84 205.407 37.048 205.023 37.176C204.639 37.304 204.239 37.304 203.823 37.176C203.247 37.016 202.831 36.616 202.575 35.976C202.351 35.336 202.239 34.616 202.239 33.816C202.239 32.984 202.335 32.136 202.527 31.272C202.719 30.376 202.895 29.704 203.055 29.256C203.247 28.744 203.519 28.2 203.871 27.624C204.223 27.016 204.623 26.488 205.071 26.04C205.519 25.56 205.999 25.224 206.511 25.032C207.023 24.808 207.551 24.808 208.095 25.032C208.287 23.112 208.799 22.264 209.631 22.488C209.823 22.552 209.967 22.616 210.063 22.68C210.191 22.744 210.271 22.856 210.303 23.016C210.335 23.144 210.335 23.336 210.303 23.592C210.271 23.848 210.223 24.2 210.159 24.648C210.095 25.064 210.015 25.608 209.919 26.28C209.823 26.92 209.711 27.752 209.583 28.776ZM207.375 26.52C206.799 26.616 206.303 26.904 205.887 27.384C205.503 27.832 205.183 28.392 204.927 29.064C204.671 29.704 204.479 30.392 204.351 31.128C204.223 31.864 204.159 32.552 204.159 33.192C204.159 33.832 204.191 34.392 204.255 34.872C204.351 35.32 204.479 35.544 204.639 35.544C204.799 35.544 205.023 35.352 205.311 34.968C205.599 34.552 205.951 33.832 206.367 32.808V32.856L206.559 32.376C206.655 32.056 206.735 31.752 206.799 31.464C206.895 31.176 206.991 30.872 207.087 30.552C207.215 30.104 207.375 29.544 207.567 28.872C207.759 28.168 207.887 27.592 207.951 27.144L207.375 26.52ZM215.036 25.128C215.036 24.808 215.116 24.568 215.276 24.408C215.468 24.216 215.66 24.12 215.852 24.12C216.076 24.088 216.284 24.152 216.476 24.312C216.668 24.44 216.796 24.664 216.86 24.984V31.128C216.86 31.544 216.844 31.8 216.812 31.896C216.812 31.992 216.812 32.056 216.812 32.088C216.812 32.12 216.812 32.184 216.812 32.28C216.812 32.376 216.828 32.632 216.86 33.048C217.244 31.96 217.692 30.888 218.204 29.832C218.716 28.776 219.308 27.784 219.98 26.856C220.236 26.568 220.524 26.424 220.844 26.424C220.908 26.424 220.972 26.44 221.036 26.472C221.132 26.472 221.212 26.472 221.276 26.472L221.804 26.52C221.868 26.584 221.948 26.68 222.044 26.808C222.172 26.936 222.252 27 222.284 27C222.604 27.704 222.828 28.392 222.956 29.064C223.116 29.704 223.26 30.36 223.388 31.032C223.548 32.024 223.756 32.984 224.012 33.912C224.268 34.84 224.748 35.608 225.452 36.216C225.644 36.44 225.724 36.664 225.692 36.888C225.66 37.112 225.564 37.304 225.404 37.464C225.276 37.592 225.084 37.688 224.828 37.752C224.604 37.784 224.38 37.72 224.156 37.56C223.74 37.208 223.388 36.808 223.1 36.36C222.844 35.88 222.62 35.384 222.428 34.872C222.268 34.328 222.124 33.784 221.996 33.24C221.9 32.696 221.804 32.184 221.708 31.704C221.612 31.16 221.5 30.632 221.372 30.12C221.276 29.576 221.148 29.064 220.988 28.584C220.284 29.672 219.724 30.776 219.308 31.896C218.892 33.016 218.508 34.184 218.156 35.4L217.244 38.232C216.988 38.776 216.524 38.84 215.852 38.424C215.66 38.264 215.5 37.96 215.372 37.512C215.244 37.032 215.148 36.472 215.084 35.832C215.02 35.192 214.972 34.488 214.94 33.72C214.908 32.952 214.892 32.168 214.892 31.368C214.892 30.504 214.892 29.656 214.892 28.824C214.924 27.992 214.956 27.256 214.988 26.616C214.988 26.392 214.988 26.12 214.988 25.8C215.02 25.448 215.036 25.224 215.036 25.128ZM222.284 26.952V27V26.952Z" fill="#133452"/>
</svg>
